<?xml version="1.0" encoding="UTF-8"?>
<svg version="1.1" xmlns="http://www.w3.org/2000/svg" width="113" height="126">
<path d="M0 0 C2.31907922 2.31907922 1.23317134 7.89090561 1.25 11 C1.270625 11.92167969 1.29125 12.84335938 1.3125 13.79296875 C1.39065775 27.64642974 -4.44232846 38.29806172 -14 48 C-18.3056554 52.22911042 -22.83611405 55.22094787 -28.1796875 58.01953125 C-29.96384896 58.86810718 -29.96384896 58.86810718 -31 60 C-33.5 60.125 -33.5 60.125 -36 60 C-38.02019441 57.97980559 -37.16400914 53.86191159 -37.16796875 51.08984375 C-37.17129715 50.28897842 -37.17462555 49.4881131 -37.17805481 48.66297913 C-37.1831309 46.96062801 -37.18546293 45.25826688 -37.18530273 43.5559082 C-37.18747051 40.97264674 -37.20556627 38.38982536 -37.22460938 35.80664062 C-37.22754705 34.15104312 -37.22952934 32.49544359 -37.23046875 30.83984375 C-37.23765427 30.07494125 -37.24483978 29.31003876 -37.25224304 28.5219574 C-37.22507791 22.01517467 -36.33924932 15.7244274 -33 10 C-32.34 10 -31.68 10 -31 10 C-30.90525391 9.11054687 -30.90525391 9.11054687 -30.80859375 8.203125 C-29.31084748 4.12230909 -25.56421062 2.99055449 -21.828125 1.19921875 C-14.97182561 -1.3286274 -7.16094986 -0.61158383 0 0 Z " fill="#0B0B0A" transform="translate(51,56)"/>
<path d="M0 0 C4.01474633 4.70298855 6.399496 9.74906265 6 16 C4.84863582 22.01941273 2.8470744 26.07617787 -2 30 C-2.64348389 30.53278564 -3.28696777 31.06557129 -3.94995117 31.61450195 C-8.68316886 33.76458683 -13.2903863 33.36742986 -18.42578125 33.29296875 C-19.52850876 33.28872391 -20.63123627 33.28447906 -21.76737976 33.28010559 C-25.28267023 33.26333905 -28.79738336 33.22568951 -32.3125 33.1875 C-34.69855942 33.17245059 -37.08462784 33.15876264 -39.47070312 33.14648438 C-45.31399842 33.11344212 -51.15695796 33.06326236 -57 33 C-55.85067883 29.5520365 -55.01470731 29.03232162 -52.125 27 C-50.03776082 25.521218 -48.14759476 24.15253813 -46.3671875 22.3125 C-45 21 -45 21 -43 21 C-42.7421875 20.44699219 -42.484375 19.89398438 -42.21875 19.32421875 C-40.82590283 16.66798777 -39.2151703 14.27260655 -37.5 11.8125 C-36.8915625 10.93207031 -36.283125 10.05164063 -35.65625 9.14453125 C-34 7 -34 7 -32 6 C-31.56107422 5.07767578 -31.56107422 5.07767578 -31.11328125 4.13671875 C-28.84989274 -0.20739885 -24.10729901 -3.16817144 -19.625 -4.9375 C-12.50743778 -5.10696577 -5.56520042 -4.91380291 0 0 Z " fill="#0B0A0A" transform="translate(89,83)"/>
<path d="M0 0 C1.91015625 1.1015625 1.91015625 1.1015625 4.66015625 3.1015625 C4.66015625 3.7615625 4.66015625 4.4215625 4.66015625 5.1015625 C5.65015625 5.4315625 6.64015625 5.7615625 7.66015625 6.1015625 C11.61248257 11.51771338 11.34421964 17.68189069 10.66015625 24.1015625 C9.89876442 26.46450268 9.04694468 28.02137986 7.66015625 30.1015625 C7.00015625 30.1015625 6.34015625 30.1015625 5.66015625 30.1015625 C5.2734375 31.02582031 5.2734375 31.02582031 4.87890625 31.96875 C2.81268652 35.58463453 -0.53685409 36.70079464 -4.33984375 38.1015625 C-5.99920873 38.45076431 -7.66678844 38.76280182 -9.33984375 39.0390625 C-13.79647624 39.8001182 -16.8615364 41.30819057 -20.55078125 43.8828125 C-22.41125797 45.15021149 -24.30921676 46.13544922 -26.33984375 47.1015625 C-28.68901355 44.7523927 -27.51165315 38.81439304 -27.52539062 35.69140625 C-27.52531006 34.99901855 -27.52522949 34.30663086 -27.52514648 33.59326172 C-27.52731322 31.50597133 -27.54540666 29.41922661 -27.56445312 27.33203125 C-27.56739107 25.9921893 -27.56937318 24.65234484 -27.5703125 23.3125 C-27.57442139 22.09868652 -27.57853027 20.88487305 -27.58276367 19.63427734 C-27.17995562 13.77635525 -25.96461081 9.14688731 -21.96484375 4.7890625 C-21.37960938 4.13292969 -20.794375 3.47679687 -20.19140625 2.80078125 C-14.82266001 -2.1262327 -6.70700275 -2.5753099 0 0 Z " fill="#0D0C0C" transform="translate(41.33984375,11.8984375)"/>
<path d="" fill="#FFFFFF" transform="translate(0,0)"/>
<path d="" fill="#FFFFFF" transform="translate(0,0)"/>
<path d="" fill="#FFFFFF" transform="translate(0,0)"/>
</svg>
