<svg version="1.1" id="Layer_1" xmlns="http://www.w3.org/2000/svg" xmlns:xlink="http://www.w3.org/1999/xlink" x="0px" y="0px"
	 width="100%" viewBox="0 0 1024 576" enable-background="new 0 0 1024 576" xml:space="preserve">
<path fill="#000000" opacity="1.000000" stroke="none" 
	d="
M298.960388,371.466736 
	C298.868744,353.867371 298.734314,336.708740 298.816895,319.551178 
	C298.913422,299.489105 312.964111,284.494080 333.108704,282.981293 
	C338.411804,282.583038 343.764404,282.845978 349.094238,282.801544 
	C351.987823,282.777405 354.138824,283.890381 354.130493,287.037170 
	C354.106201,296.186310 354.689941,305.334076 353.724335,314.486908 
	C352.412262,326.923676 346.889648,337.346252 338.845245,346.575073 
	C329.205017,357.634583 317.667542,366.297852 304.542328,372.815521 
	C302.694122,373.733337 300.243378,375.843353 298.960388,371.466736 
z"/>
<path fill="#000000" opacity="1.000000" stroke="none" 
	d="
M337.130676,365.126251 
	C347.119141,357.288422 354.603394,347.801727 360.938751,337.288422 
	C365.382965,329.913452 370.665009,323.139160 379.016052,319.958069 
	C390.850403,315.450073 402.049042,316.676788 411.558899,325.559509 
	C420.348114,333.769073 422.819946,344.199188 418.860291,355.287292 
	C414.381104,367.830109 404.488800,374.570312 391.300812,374.808044 
	C370.153046,375.189240 348.989471,374.698212 327.832825,374.542328 
	C327.424469,374.539276 327.019196,374.122864 326.126251,373.632019 
	C329.874939,370.745728 333.370300,368.054474 337.130676,365.126251 
z"/>
<path fill="#000000" opacity="1.000000" stroke="none" 
	d="
M298.807495,257.000305 
	C298.857635,250.344498 298.420380,244.136963 299.064209,238.043686 
	C300.334442,226.022369 308.458069,216.681885 319.746857,213.769653 
	C331.487885,210.740738 341.152283,214.783371 348.766052,223.627686 
	C356.353485,232.441376 357.203979,244.959778 351.466736,255.428101 
	C346.208313,265.022675 337.908417,270.484436 327.210876,271.831543 
	C317.603577,273.041321 309.251831,276.440643 302.381134,283.330658 
	C301.830353,283.882996 301.028534,284.184967 299.587738,285.064667 
	C298.075378,275.517792 299.194061,266.469635 298.807495,257.000305 
z"/>
<path fill="#000000" opacity="1.000000" stroke="none" 
	d="
M471.192078,374.891113 
	C468.891907,374.782562 467.062927,374.705200 465.239380,374.560028 
	C462.008392,374.302856 460.594727,372.537384 460.601044,369.288452 
	C460.642456,347.970306 460.648193,326.652008 460.593384,305.333923 
	C460.583527,301.493195 462.510681,299.847107 466.096527,299.830170 
	C479.419952,299.767273 492.743652,299.764618 506.067139,299.705353 
	C510.384247,299.686127 511.339996,302.298798 511.257629,305.944885 
	C511.173767,309.656494 510.953339,313.231628 505.952118,313.268280 
	C497.458649,313.330505 488.960358,313.466980 480.472443,313.248688 
	C476.343811,313.142487 474.957977,314.519958 475.108063,318.720245 
	C475.592896,332.285278 473.112610,330.578033 487.066223,330.655365 
	C492.229034,330.683960 497.418030,330.968384 502.548065,330.553925 
	C507.842133,330.126282 508.741791,333.087494 508.811768,337.222198 
	C508.897217,342.271606 507.486481,343.955505 502.470093,344.037598 
	C495.643890,344.149353 488.813873,344.032013 481.985504,344.008545 
	C475.260803,343.985443 475.094727,344.080627 475.178711,350.535980 
	C475.325348,361.803802 473.466492,360.987000 485.550873,361.000610 
	C492.046173,361.007904 498.541443,361.026306 505.036743,361.035339 
	C509.628021,361.041718 511.458038,363.224335 511.405457,367.899506 
	C511.354675,372.412720 509.898132,374.854340 505.141205,374.844788 
	C493.982788,374.822388 482.824219,374.871521 471.192078,374.891113 
z"/>
<path fill="#000000" opacity="1.000000" stroke="none" 
	d="
M622.311279,255.245605 
	C622.314575,266.035217 622.352356,276.355164 622.282104,286.674408 
	C622.263672,289.389008 623.168274,293.140686 619.536011,293.846252 
	C615.711182,294.589233 611.244568,296.097351 608.033630,291.921997 
	C607.736389,291.535461 607.494202,291.106598 606.991211,290.337830 
	C600.922058,294.675262 594.385132,295.898315 587.372742,295.356812 
	C578.375427,294.662018 572.808289,289.647339 571.264587,280.515076 
	C569.958679,272.789551 573.906433,266.171631 581.945312,262.890259 
	C587.898193,260.460419 594.263062,260.233978 600.562378,259.798859 
	C603.848999,259.571838 607.275085,259.409149 607.608948,255.177826 
	C607.950867,250.845596 604.608887,249.613312 601.196411,248.943024 
	C596.383606,247.997711 592.081360,248.497223 588.707520,252.855255 
	C585.615112,256.849762 581.078125,257.130890 577.852356,254.055115 
	C574.623169,250.976059 575.092041,245.997391 578.924438,242.672028 
	C587.448059,235.276062 608.528015,235.041000 617.014893,242.297104 
	C620.825378,245.555023 622.101929,249.954239 622.311279,255.245605 
M607.616272,272.825165 
	C607.538452,271.458954 607.486328,269.911377 605.615112,269.994934 
	C600.144104,270.239258 594.592224,270.034454 589.393311,272.233917 
	C587.009094,273.242584 585.728699,275.185394 585.666321,277.690765 
	C585.608398,280.018768 586.825806,281.783997 588.930969,282.901367 
	C596.342346,286.835327 606.350647,281.847961 607.616272,272.825165 
z"/>
<path fill="#000000" opacity="1.000000" stroke="none" 
	d="
M548.433350,238.159760 
	C560.565430,242.148361 566.703247,250.496246 566.932129,262.905090 
	C567.033813,268.420380 565.290649,270.612793 559.664062,270.804657 
	C550.843872,271.105408 542.009338,270.971008 533.181519,271.070984 
	C528.260986,271.126678 527.275391,272.705872 529.228455,277.208557 
	C532.211365,284.085480 543.132751,286.100403 550.593506,281.092529 
	C552.107178,280.076508 553.345032,278.631226 554.898132,277.696320 
	C557.552185,276.098724 560.404297,276.060638 562.789551,278.143982 
	C565.229858,280.275391 564.594360,282.985992 563.287598,285.466522 
	C560.875916,290.044434 556.693542,292.570221 551.988770,293.950500 
	C544.147766,296.250885 536.074097,296.439240 528.421021,293.499390 
	C517.268616,289.215210 513.864380,279.618286 513.013245,268.745270 
	C512.526245,262.523224 513.415527,256.416809 516.006958,250.700470 
	C520.554932,240.668243 529.641602,236.639359 542.624939,237.150299 
	C544.439087,237.221680 546.235901,237.732452 548.433350,238.159760 
M531.874573,251.202026 
	C531.219482,251.949478 530.436401,252.619598 529.930603,253.457230 
	C527.079712,258.178619 528.051880,259.884705 533.643982,259.975800 
	C537.638855,260.040894 541.641907,260.158844 545.628357,259.974548 
	C547.752869,259.876373 550.801270,261.071228 551.581360,257.924500 
	C552.291809,255.058899 550.492798,252.675827 548.203674,251.175797 
	C543.136108,247.855133 537.801758,248.430573 531.874573,251.202026 
z"/>
<path fill="#000000" opacity="1.000000" stroke="none" 
	d="
M591.485657,330.194946 
	C585.179688,328.458282 579.769348,328.259308 575.514832,334.049835 
	C573.377625,336.958679 567.683960,336.981323 565.006042,334.793610 
	C562.310242,332.591217 562.274719,328.412689 564.961548,324.896423 
	C571.806885,315.938141 599.711609,314.218384 606.862061,324.988129 
	C609.367859,328.762238 610.201599,332.899017 610.213745,337.292419 
	C610.240845,347.110016 610.260681,356.927765 610.228882,366.745270 
	C610.219421,369.665619 610.971436,373.273712 607.040222,374.211121 
	C603.058167,375.160675 598.776428,376.009552 595.649658,371.922760 
	C595.370361,371.557709 594.921448,371.322388 594.373291,370.884644 
	C588.309509,375.836304 581.128662,375.848236 573.933655,375.233490 
	C565.446167,374.508301 559.712341,368.296326 558.822144,359.333282 
	C558.013245,351.188995 562.215393,345.151550 570.637207,342.609253 
	C574.788940,341.356018 579.084290,340.834961 583.423828,340.712036 
	C585.417969,340.655548 587.444214,340.742920 589.395508,340.410645 
	C591.793579,340.002197 594.720886,339.898712 595.398376,336.854645 
	C596.062683,333.870056 594.354736,331.802551 591.485657,330.194946 
M587.976318,363.687531 
	C592.770630,362.400543 595.104065,359.108032 595.533325,354.319611 
	C595.765442,351.730804 594.831177,350.038544 591.911987,350.315918 
	C587.454468,350.739471 582.976624,351.069397 578.561584,351.777252 
	C575.517456,352.265350 573.400940,354.138275 573.363159,357.516724 
	C573.324768,360.949890 575.091736,363.023560 578.382507,364.045380 
	C581.384888,364.977692 584.278320,364.688385 587.976318,363.687531 
z"/>
<path fill="#000000" opacity="1.000000" stroke="none" 
	d="
M675.730713,281.965973 
	C675.709412,269.484436 675.675232,257.497955 675.681946,245.511505 
	C675.683533,242.728958 675.069763,239.298828 678.744324,238.468506 
	C682.526001,237.613953 686.689880,236.495483 689.739441,240.472427 
	C690.115784,240.963272 690.526672,241.427628 691.021301,242.024612 
	C697.316467,237.921127 703.960266,236.603928 711.188538,237.623734 
	C720.650635,238.958740 726.839111,244.961014 727.145996,254.483521 
	C727.521240,266.125031 727.262390,277.786835 727.284424,289.439880 
	C727.294434,294.757385 723.530151,294.379639 719.940002,294.381805 
	C716.271851,294.384003 712.709106,294.463104 712.737183,289.222870 
	C712.786255,280.066956 712.779541,270.909851 712.687561,261.754364 
	C712.608459,253.889526 710.556274,250.844711 705.210999,250.257385 
	C696.873657,249.341309 692.540039,252.026321 691.018982,259.870300 
	C689.329163,268.584351 690.519531,277.463287 690.324158,286.266724 
	C690.159180,293.701660 685.106262,296.982697 678.193420,293.961365 
	C676.413025,293.183228 675.827515,291.717499 675.787598,289.951691 
	C675.731140,287.455688 675.747559,284.958008 675.730713,281.965973 
z"/>
<path fill="#000000" opacity="1.000000" stroke="none" 
	d="
M460.608887,240.036804 
	C460.477844,235.050079 460.220642,230.555862 460.250671,226.063568 
	C460.285431,220.858887 461.651245,219.773773 467.476746,219.788406 
	C473.832672,219.804352 475.238678,220.824905 475.264526,226.123810 
	C475.343445,242.285477 475.465698,258.450470 475.202484,274.608124 
	C475.122406,279.523682 476.813599,280.989624 481.542694,280.776978 
	C488.859283,280.447968 496.204010,280.803650 503.531525,280.637268 
	C508.037415,280.534973 509.330688,282.811859 509.202454,286.849762 
	C509.079559,290.719757 509.119324,294.357208 503.646362,294.318726 
	C491.150635,294.230804 478.653381,294.247711 466.157532,294.334473 
	C461.696533,294.365448 460.523499,292.055450 460.553650,288.016296 
	C460.671814,272.188354 460.606689,256.359009 460.608887,240.036804 
z"/>
<path fill="#000000" opacity="1.000000" stroke="none" 
	d="
M544.933960,318.535889 
	C546.982971,318.243011 548.633057,317.869751 550.278931,317.887268 
	C555.597839,317.943817 557.217712,319.588287 557.261963,324.701752 
	C557.310059,330.254608 555.672485,332.019806 550.336548,332.166931 
	C537.549622,332.519409 535.333130,334.746857 535.251892,347.499664 
	C535.208374,354.330444 535.295227,361.162018 535.261658,367.992920 
	C535.235107,373.399872 533.745300,374.847351 528.468323,374.794739 
	C521.627319,374.726593 520.626099,373.923645 520.611633,368.198273 
	C520.575867,354.036102 520.574585,339.873840 520.581726,325.711609 
	C520.583374,322.404144 520.014160,318.895355 524.937378,318.215973 
	C530.872498,317.396912 533.015198,318.366943 535.037415,323.872955 
	C538.151001,321.956116 540.892944,319.405243 544.933960,318.535889 
z"/>
<path fill="#000000" opacity="1.000000" stroke="none" 
	d="
M632.711670,265.999939 
	C632.706543,258.838531 632.651733,252.176636 632.719910,245.515976 
	C632.747559,242.813614 631.768921,239.329834 635.638306,238.482346 
	C639.462463,237.644775 643.594727,236.588852 646.692505,240.460861 
	C647.092285,240.960617 647.486877,241.464523 648.157288,242.312225 
	C652.669189,239.081802 657.556274,237.339310 663.105835,237.667908 
	C666.648560,237.877670 668.995361,239.232346 668.893982,242.992157 
	C668.794434,246.689575 668.571289,250.583481 663.562927,251.194016 
	C662.740173,251.294312 661.900391,251.260544 661.068298,251.277649 
	C650.832520,251.487900 647.471619,254.840958 647.342346,265.217163 
	C647.244873,273.043182 647.397949,280.872711 647.265076,288.697723 
	C647.178345,293.807434 646.037659,294.348572 639.099609,294.421753 
	C634.846985,294.466614 632.509705,293.255249 632.654480,288.480804 
	C632.876343,281.160004 632.711914,273.827515 632.711670,265.999939 
z"/>
</svg>